<?xml version="1.0" standalone="no"?>
<!DOCTYPE svg PUBLIC "-//W3C//DTD SVG 20010904//EN"
 "http://www.w3.org/TR/2001/REC-SVG-20010904/DTD/svg10.dtd">
<svg version="1.0" xmlns="http://www.w3.org/2000/svg"
 width="300.000000pt" height="212.000000pt" viewBox="0 0 300.000000 212.000000"
 preserveAspectRatio="xMidYMid meet">
<metadata>
Created by potrace 1.10, written by Peter Selinger 2001-2011
</metadata>
<g transform="translate(0.000000,212.000000) scale(0.100000,-0.100000)"
fill="#ff0000" stroke="none">
<path d="M475 1374 c-148 -32 -289 -124 -335 -218 -27 -56 -27 -136 0 -192 42
-85 158 -168 296 -211 47 -14 91 -18 224 -18 154 1 170 3 244 28 269 94 362
274 232 450 -33 45 -145 114 -231 143 -68 23 -101 27 -220 30 -100 3 -160 -1
-210 -12z m325 -8 c90 -9 212 -61 288 -123 82 -67 113 -180 73 -268 l-18 -40
-62 3 c-53 3 -61 6 -56 20 4 10 9 34 12 55 l6 37 63 0 c36 0 64 4 64 10 0 6
-28 10 -64 10 l-63 0 -6 38 c-3 20 -8 44 -12 53 -5 14 1 16 43 11 31 -2 52 0
56 7 5 8 -11 11 -53 11 -57 0 -60 1 -81 34 -26 43 -79 90 -130 116 -62 32 -61
23 2 -13 129 -73 191 -208 157 -343 -11 -43 -12 -44 -53 -45 l-41 -2 37 -6 38
-6 -40 -50 c-23 -30 -63 -63 -97 -82 -64 -36 -66 -45 -3 -13 51 26 104 73 130
116 21 33 24 34 81 34 32 0 59 -4 59 -9 0 -11 -70 -69 -120 -98 -48 -29 -154
-64 -215 -71 -62 -7 -213 -7 -280 1 -151 17 -319 118 -366 220 -64 143 33 286
248 364 86 31 99 29 36 -7 -45 -26 -133 -118 -133 -138 0 -4 -28 -6 -62 -5
-54 2 -59 1 -33 -8 17 -5 43 -7 59 -4 27 5 28 4 20 -23 -11 -35 -11 -149 0
-184 8 -27 8 -27 -51 -31 l-58 -3 62 -2 c58 -2 62 -4 83 -36 11 -19 36 -48 56
-65 36 -32 113 -75 120 -68 2 2 -14 12 -36 22 -39 18 -140 114 -140 134 0 5
12 12 28 14 21 3 20 4 -6 3 -31 -2 -33 1 -47 48 -8 27 -15 53 -15 58 0 4 23 8
50 8 30 0 50 4 50 11 0 7 -18 10 -50 7 -57 -3 -56 -3 -35 70 11 36 20 50 28
45 19 -12 46 -14 52 -3 4 6 -7 10 -24 10 -17 0 -31 5 -31 10 0 17 91 110 125
127 95 50 169 58 355 39z"/>
<path d="M553 1344 c-20 -18 -22 -22 -7 -15 21 10 52 41 41 41 -3 0 -19 -12
-34 -26z"/>
<path d="M720 1367 c0 -2 15 -14 33 -27 l32 -23 -24 26 c-21 23 -41 35 -41 24z"/>
<path d="M411 1291 c-18 -18 -19 -36 -19 -231 -1 -196 1 -213 19 -231 18 -18
35 -19 242 -19 185 0 226 3 245 16 22 15 22 19 22 234 0 215 0 219 -22 234
-19 13 -60 16 -245 16 -206 0 -224 -1 -242 -19z m104 -51 c10 0 28 9 40 20 23
22 55 18 55 -6 0 -20 69 -19 76 1 7 18 30 20 41 2 5 -8 31 -13 77 -12 48 0 70
-4 74 -13 3 -10 -12 -13 -67 -11 -40 1 -76 -2 -81 -7 -5 -5 -10 -80 -12 -167
l-3 -157 45 0 c25 0 55 -3 67 -6 18 -5 25 -1 34 22 l12 29 7 -30 c3 -16 3 -34
-1 -39 -10 -12 -188 -16 -195 -4 -3 5 -1 14 4 21 7 8 7 29 2 57 -5 25 -9 62
-10 83 0 20 -4 38 -10 38 -5 1 -15 2 -22 3 -7 0 -16 20 -21 44 -8 40 -19 52
-31 33 -3 -5 -1 -23 6 -41 9 -29 9 -35 -8 -47 -30 -22 -39 -10 -36 48 3 41 1
51 -8 43 -6 -6 -10 -32 -8 -60 l3 -49 45 -3 c24 -2 50 -8 56 -13 12 -9 11
-145 0 -157 -11 -10 -120 -10 -133 1 -18 13 -16 82 2 97 11 9 22 9 50 0 42
-14 45 -27 8 -32 -41 -4 -44 -38 -5 -38 49 0 62 9 62 44 0 44 -16 56 -72 56
-57 0 -61 8 -56 115 3 62 6 71 26 80 34 15 27 35 -13 35 -46 0 -50 -17 -41
-184 4 -85 3 -142 -4 -160 -21 -57 -30 -13 -30 155 0 103 -4 178 -11 190 -8
16 -7 25 7 40 17 19 18 19 39 -1 12 -11 30 -20 40 -20z m315 -50 l55 -5 0 -60
0 -60 -53 -3 c-51 -3 -53 -4 -50 -30 3 -25 6 -27 50 -27 55 0 61 -4 52 -39 -7
-28 -24 -36 -24 -10 0 12 -9 14 -37 12 -35 -3 -38 -6 -41 -35 -2 -19 -9 -33
-16 -33 -16 0 -29 80 -20 117 4 14 1 36 -7 50 -11 21 -11 27 -1 30 14 5 17 63
2 63 -5 0 -10 6 -10 13 0 19 21 37 34 29 6 -4 36 -9 66 -12z m5 -258 c0 -18
-20 -15 -23 4 -3 10 1 15 10 12 7 -3 13 -10 13 -16z"/>
<path d="M631 1211 c-11 -7 -10 -11 7 -20 14 -8 22 -23 24 -49 5 -56 23 -40
23 21 0 44 -3 52 -20 55 -11 1 -26 -2 -34 -7z"/>
<path d="M787 1154 c-13 -13 -7 -52 8 -58 8 -3 29 -3 46 1 25 5 30 10 27 32
-3 22 -9 26 -38 29 -20 2 -39 0 -43 -4z"/>
<path d="M943 1183 c9 -2 25 -2 35 0 9 3 1 5 -18 5 -19 0 -27 -2 -17 -5z"/>
<path d="M140 1060 c0 -6 27 -10 60 -10 33 0 60 4 60 10 0 6 -27 10 -60 10
-33 0 -60 -4 -60 -10z"/>
<path d="M930 1060 c0 -5 20 -10 45 -10 25 0 45 5 45 10 0 6 -20 10 -45 10
-25 0 -45 -4 -45 -10z"/>
<path d="M539 786 c8 -9 24 -22 35 -28 19 -10 20 -10 7 6 -8 9 -24 22 -35 28
-19 10 -20 10 -7 -6z"/>
<path d="M745 775 c-16 -14 -25 -25 -19 -25 6 0 21 11 34 25 30 32 24 31 -15
0z"/>
<path d="M1327 1252 c-9 -2 -17 -10 -17 -17 0 -18 39 -21 213 -17 111 2 137 6
137 18 0 7 -6 14 -12 15 -43 3 -307 3 -321 1z"/>
<path d="M1720 1245 c0 -12 14 -15 72 -15 39 0 68 -3 65 -7 -4 -4 -32 -5 -62
-4 l-55 2 0 -80 c0 -44 -4 -83 -10 -86 -18 -11 -10 -25 15 -25 15 0 31 10 41
25 17 26 18 26 143 24 69 -1 125 1 124 5 -2 3 -3 36 -3 72 l0 66 -70 -4 c-38
-2 -70 0 -70 4 0 4 39 8 86 8 64 0 85 3 82 13 -4 9 -51 13 -181 15 -153 2
-177 0 -177 -13z m280 -100 l0 -45 -105 0 c-67 0 -105 4 -105 11 0 6 31 9 87
8 58 -1 88 2 91 10 3 8 -25 12 -90 13 l-93 2 93 3 c71 3 92 7 92 18 0 11 -21
15 -92 18 l-93 3 108 2 107 2 0 -45z"/>
<path d="M2137 1252 c-21 -4 -23 -32 -2 -32 12 0 15 -19 15 -115 l0 -115 25 0
25 0 0 115 0 115 65 0 c41 0 65 -4 65 -11 0 -7 -17 -10 -45 -7 l-45 3 0 -62 0
-63 85 0 85 0 0 -30 c0 -30 0 -30 -60 -30 -33 0 -60 4 -60 10 0 6 20 10 45 10
33 0 45 4 45 15 0 12 -14 15 -70 15 l-70 0 0 -40 0 -40 110 0 110 0 0 60 0 60
-85 0 -85 0 0 35 c0 28 4 35 20 35 16 0 20 -7 20 -30 0 -26 4 -30 26 -30 22 0
25 4 22 27 -2 20 2 29 15 31 13 3 17 -3 17 -27 0 -26 4 -31 25 -31 23 0 25 4
25 43 l0 43 -39 -4 c-21 -2 -42 1 -45 7 -5 7 11 11 48 11 43 0 56 3 56 15 0
11 -12 15 -47 16 -154 3 -282 4 -296 1z m223 -62 c0 -5 -4 -10 -10 -10 -5 0
-10 5 -10 10 0 6 5 10 10 10 6 0 10 -4 10 -10z"/>
<path d="M2517 1253 c-17 -16 -3 -23 43 -23 l50 0 0 -40 c0 -33 -3 -40 -20
-40 -15 0 -20 7 -20 28 0 24 -4 27 -27 26 -16 0 -27 -4 -25 -7 1 -4 2 -23 2
-43 0 -20 4 -33 10 -29 5 3 26 3 46 -1 l36 -7 -4 -63 c-3 -64 -3 -64 25 -64
l27 0 0 135 0 135 -68 0 c-38 0 -72 -3 -75 -7z"/>
<path d="M2678 1126 l-3 -135 98 -3 c89 -3 97 -1 97 16 0 14 -5 17 -25 12 -20
-5 -25 -3 -25 14 0 15 7 20 25 20 16 0 25 6 25 16 0 12 -6 15 -25 10 -22 -6
-25 -3 -25 19 0 22 3 25 25 19 19 -5 25 -2 25 10 0 10 -9 16 -25 16 -19 0 -25
5 -25 21 0 17 5 20 25 17 18 -4 25 -1 25 11 0 14 -10 16 -70 13 -59 -4 -70 -2
-70 12 0 13 12 16 70 16 56 0 70 3 70 15 0 12 -17 15 -94 15 l-95 0 -3 -134z
m92 34 c0 -13 -7 -20 -20 -20 -13 0 -20 7 -20 20 0 13 7 20 20 20 13 0 20 -7
20 -20z m0 -65 c0 -14 -6 -21 -20 -21 -14 0 -20 7 -20 21 0 14 6 21 20 21 14
0 20 -7 20 -21z m0 -63 c0 -11 -7 -18 -20 -18 -13 0 -20 7 -20 18 0 11 7 18
20 18 13 0 20 -7 20 -18z"/>
<path d="M1310 1198 c0 -17 5 -23 17 -20 7 2 13 -4 13 -13 0 -8 -7 -15 -15
-15 -8 0 -15 -7 -15 -15 0 -8 7 -15 15 -15 8 0 15 -7 15 -15 0 -8 -7 -15 -15
-15 -8 0 -15 -7 -15 -15 0 -12 15 -15 75 -15 43 0 75 -4 75 -10 0 -6 -33 -10
-80 -10 -68 0 -79 -2 -73 -16 5 -13 20 -15 79 -12 54 2 74 0 74 -9 0 -7 11
-13 25 -13 14 0 25 6 25 13 0 9 19 11 74 9 60 -3 74 -1 79 12 6 14 -4 16 -73
16 -47 0 -80 4 -80 10 0 6 32 10 75 10 60 0 75 3 75 15 0 8 -7 15 -15 15 -8 0
-15 7 -15 15 0 8 7 15 15 15 8 0 15 7 15 15 0 8 -7 15 -15 15 -8 0 -15 7 -15
15 0 9 6 15 13 13 12 -3 17 3 17 20 0 4 -79 7 -175 7 -96 0 -175 -3 -175 -7z
m150 -33 c0 -10 -11 -15 -35 -15 -24 0 -35 5 -35 15 0 10 11 15 35 15 24 0 35
-5 35 -15z m120 0 c0 -10 -11 -15 -35 -15 -24 0 -35 5 -35 15 0 10 11 15 35
15 24 0 35 -5 35 -15z m-206 -36 c-3 -5 -10 -7 -15 -3 -5 3 -7 10 -3 15 3 5
10 7 15 3 5 -3 7 -10 3 -15z m126 7 c0 -3 -4 -8 -10 -11 -5 -3 -10 -1 -10 4 0
6 5 11 10 11 6 0 10 -2 10 -4z m120 0 c0 -11 -19 -15 -25 -6 -3 5 1 10 9 10 9
0 16 -2 16 -4z m-160 -31 c0 -10 -11 -15 -35 -15 -24 0 -35 5 -35 15 0 10 11
15 35 15 24 0 35 -5 35 -15z m120 0 c0 -10 -11 -15 -35 -15 -24 0 -35 5 -35
15 0 10 11 15 35 15 24 0 35 -5 35 -15z m-86 -36 c-3 -5 -10 -7 -15 -3 -5 3
-7 10 -3 15 3 5 10 7 15 3 5 -3 7 -10 3 -15z m6 -33 c0 -3 -4 -8 -10 -11 -5
-3 -10 -1 -10 4 0 6 5 11 10 11 6 0 10 -2 10 -4z"/>
<path d="M2518 1050 c-3 -60 -3 -60 25 -60 26 0 27 1 27 60 0 57 -1 60 -24 60
-23 0 -24 -4 -28 -60z"/>
<path d="M1837 1044 c5 -12 19 -15 74 -12 38 2 69 -1 69 -6 0 -5 -39 -7 -88
-4 -105 6 -152 1 -152 -18 0 -11 32 -14 171 -14 132 0 170 3 167 13 -3 6 -14
13 -26 15 -25 4 -28 12 -10 30 9 9 -13 12 -100 12 -97 0 -111 -2 -105 -16z"/>
<path d="M1323 928 c-22 -29 -23 -38 -3 -58 20 -20 63 -26 94 -14 33 13 14 23
-29 17 -43 -5 -45 -5 -45 20 0 31 30 44 59 25 11 -7 24 -9 28 -5 4 5 1 12 -7
17 -22 14 -86 12 -97 -2z"/>
<path d="M1460 895 c0 -33 4 -45 15 -45 8 0 15 9 15 20 0 16 7 20 31 20 26 0
31 -3 26 -20 -4 -15 0 -20 14 -20 16 0 19 7 19 45 0 38 -3 45 -20 45 -12 0
-17 -5 -14 -14 4 -9 -5 -15 -25 -18 -25 -4 -31 -1 -31 14 0 10 -7 18 -15 18
-11 0 -15 -12 -15 -45z"/>
<path d="M1605 895 c0 -33 4 -45 15 -45 11 0 15 12 15 45 0 33 -4 45 -15 45
-11 0 -15 -12 -15 -45z"/>
<path d="M1660 895 c0 -33 4 -45 15 -45 10 0 15 10 15 32 l0 32 29 -32 c43
-46 61 -43 61 13 0 33 -4 45 -15 45 -10 0 -15 -10 -15 -31 l0 -31 -26 31 c-14
17 -34 31 -45 31 -16 0 -19 -7 -19 -45z"/>
<path d="M1826 900 c-30 -46 -31 -50 -11 -50 8 0 15 5 15 10 0 14 63 13 77 -1
6 -6 16 -10 22 -8 15 6 -41 89 -60 89 -9 0 -28 -18 -43 -40z m54 5 c10 -13 9
-15 -8 -15 -15 0 -20 5 -16 15 4 8 7 15 9 15 1 0 8 -7 15 -15z"/>
<path d="M2010 895 l0 -45 55 0 c30 0 55 5 55 10 0 6 -19 10 -41 10 l-42 0 6
35 c5 30 3 35 -14 35 -16 0 -19 -7 -19 -45z"/>
<path d="M2140 895 c0 -33 4 -45 15 -45 11 0 15 12 15 45 0 33 -4 45 -15 45
-11 0 -15 -12 -15 -45z"/>
<path d="M2195 895 l0 -45 51 0 c35 0 56 5 65 16 9 11 10 17 2 22 -7 4 -11 16
-10 27 2 17 -5 20 -53 23 l-55 3 0 -46z m79 26 c3 -5 -6 -11 -19 -14 -25 -4
-40 4 -28 17 9 9 41 7 47 -3z m16 -41 c0 -5 -16 -10 -35 -10 -19 0 -35 5 -35
10 0 6 16 10 35 10 19 0 35 -4 35 -10z"/>
<path d="M2340 895 l0 -45 61 0 c37 0 58 4 54 10 -3 6 -24 10 -46 10 -21 0
-39 5 -39 10 0 6 18 10 40 10 22 0 40 5 40 10 0 6 -18 10 -40 10 -22 0 -40 5
-40 10 0 6 15 8 40 4 27 -4 40 -3 40 5 0 7 -21 11 -55 11 l-55 0 0 -45z"/>
<path d="M2480 895 c0 -33 4 -45 15 -45 8 0 15 9 15 20 0 11 6 20 13 20 8 0
22 -9 32 -20 19 -21 95 -29 95 -10 0 6 16 10 35 10 19 0 35 -4 35 -10 0 -5 9
-10 20 -10 20 0 19 3 -10 45 -32 47 -64 59 -74 28 -4 -10 -15 -29 -25 -42 -16
-21 -20 -22 -39 -10 -26 16 -28 29 -6 29 9 0 14 7 12 18 -2 13 -15 18 -61 20
l-57 3 0 -46z m81 20 c0 -5 -12 -11 -26 -13 -18 -2 -25 1 -25 13 0 12 7 15 25
13 14 -2 26 -7 26 -13z m128 -24 c-15 -5 -22 6 -14 19 6 9 10 9 16 -1 5 -8 4
-15 -2 -18z"/>
<path d="M2770 895 l0 -45 55 0 c30 0 55 5 55 10 0 6 -18 10 -41 10 -41 0 -41
0 -37 35 3 29 1 35 -14 35 -15 0 -18 -8 -18 -45z"/>
</g>
</svg>
