<?xml version="1.0" standalone="no"?>
<!DOCTYPE svg PUBLIC "-//W3C//DTD SVG 20010904//EN"
 "http://www.w3.org/TR/2001/REC-SVG-20010904/DTD/svg10.dtd">
<svg version="1.0" xmlns="http://www.w3.org/2000/svg"
 width="300.000000pt" height="109.000000pt" viewBox="0 0 300.000000 109.000000"
 preserveAspectRatio="xMidYMid meet">
<metadata>
Created by potrace 1.10, written by Peter Selinger 2001-2011
</metadata>
<g transform="translate(0.000000,109.000000) scale(0.100000,-0.100000)"
fill="#000000" stroke="none">
<path d="M0 545 l0 -545 1500 0 1500 0 0 545 0 545 -1500 0 -1500 0 0 -545z
m410 278 c-24 -3 -48 -10 -52 -16 -5 -8 -8 -8 -8 -1 0 19 13 24 59 22 l46 -1
-45 -4z m47 -30 c-4 -3 -7 0 -7 7 0 7 3 10 7 7 3 -4 3 -10 0 -14z m10 -40 c-4
-3 -7 0 -7 7 0 7 3 10 7 7 3 -4 3 -10 0 -14z m-130 -20 c-4 -3 -7 0 -7 7 0 7
3 10 7 7 3 -4 3 -10 0 -14z m140 -10 c-4 -3 -7 0 -7 7 0 7 3 10 7 7 3 -4 3
-10 0 -14z m-150 -25 c-3 -8 -6 -5 -6 6 -1 11 2 17 5 13 3 -3 4 -12 1 -19z
m160 -10 c-3 -8 -6 -5 -6 6 -1 11 2 17 5 13 3 -3 4 -12 1 -19z m-170 -25 c-4
-3 -7 0 -7 7 0 7 3 10 7 7 3 -4 3 -10 0 -14z m180 -15 c-3 -8 -6 -5 -6 6 -1
11 2 17 5 13 3 -3 4 -12 1 -19z m13 -33 c0 -13 -18 -15 -112 -13 l-113 2 108
3 c60 2 107 8 107 13 0 6 2 10 5 10 3 0 5 -7 5 -15z m-417 -43 c-7 -5 -13 -40
-16 -87 l-3 -80 -2 88 c-2 77 0 87 16 87 11 0 13 -3 5 -8z m64 -8 c-3 -3 -12
-4 -19 -1 -8 3 -5 6 6 6 11 1 17 -2 13 -5z m581 -6 c21 -21 15 -68 -10 -78
l-23 -9 23 -7 c24 -7 27 -15 11 -31 -8 -8 -28 -4 -72 13 -75 30 -77 30 -77 -1
0 -18 -5 -25 -20 -25 -18 0 -20 7 -20 75 l0 75 88 0 c55 0 92 -4 100 -12z
m221 -2 c7 -9 11 -38 9 -73 l-3 -58 -85 -3 c-71 -2 -87 0 -97 14 -18 25 -16
99 3 118 21 21 156 23 173 2z m231 -6 c0 -18 -7 -20 -80 -20 l-80 0 0 -35 0
-35 80 0 c73 0 80 -2 80 -20 0 -18 -7 -20 -88 -20 -55 0 -92 4 -100 12 -18 18
-15 103 4 122 12 12 36 16 100 16 77 0 84 -2 84 -20z m60 -10 l0 -30 66 25
c78 29 97 31 92 8 -2 -9 -24 -23 -53 -33 l-50 -18 28 -11 c15 -6 39 -14 52
-17 25 -6 33 -28 16 -38 -5 -3 -39 5 -75 19 -37 14 -69 25 -71 25 -3 0 -5 -11
-5 -25 0 -18 -5 -25 -20 -25 -18 0 -20 7 -20 68 0 71 4 82 27 82 8 0 13 -12
13 -30z m380 10 c0 -18 -7 -20 -80 -20 -47 0 -80 -4 -80 -10 0 -6 33 -10 80
-10 73 0 80 -2 80 -20 0 -18 -7 -20 -81 -20 -51 0 -78 -4 -74 -10 3 -5 40 -10
81 -10 59 0 74 -3 74 -15 0 -12 -18 -15 -100 -15 l-100 0 0 68 c0 38 3 72 7
75 3 4 48 7 100 7 86 0 93 -1 93 -20z m228 -2 c3 -15 -4 -18 -42 -18 l-46 0 0
-55 c0 -42 -3 -55 -15 -55 -12 0 -15 13 -15 55 l0 55 -40 0 c-34 0 -40 3 -40
20 0 20 5 21 97 18 84 -3 98 -6 101 -20z m132 -38 l0 -60 85 0 c69 0 85 -3 85
-15 0 -12 -18 -15 -105 -15 l-105 0 0 68 c0 71 4 82 27 82 9 0 13 -17 13 -60z
m369 51 c10 -6 16 -33 19 -75 4 -61 3 -66 -16 -66 -15 0 -22 7 -24 28 -3 26
-5 27 -63 27 -58 0 -60 -1 -63 -28 -3 -20 -8 -27 -20 -25 -23 5 -25 124 -2
138 19 12 150 13 169 1z m224 -6 c18 -17 21 -103 5 -122 -7 -9 -40 -13 -99
-13 l-89 0 0 75 0 75 84 0 c62 0 89 -4 99 -15z m115 8 l-57 -4 -4 -72 -3 -72
-2 78 -2 77 63 -2 62 -2 -57 -3z m-2465 -31 c17 -15 24 -67 10 -75 -5 -3 -8
11 -8 31 0 32 -5 39 -35 55 -24 12 -27 16 -10 11 14 -3 33 -13 43 -22z m2564
11 c-4 -3 -10 -3 -14 0 -3 4 0 7 7 7 7 0 10 -3 7 -7z m70 -30 c-4 -3 -10 -3
-14 0 -3 4 0 7 7 7 7 0 10 -3 7 -7z m-2563 -18 c-5 -13 11 -15 102 -17 l109
-2 -104 -3 c-101 -4 -131 3 -117 26 10 16 16 13 10 -4z m2583 -22 c-4 -3 -10
-3 -14 0 -3 4 0 7 7 7 7 0 10 -3 7 -7z m-37 -13 c-8 -5 -19 -10 -25 -10 -5 0
-3 5 5 10 8 5 20 10 25 10 6 0 3 -5 -5 -10z m-63 -27 c-4 -3 -10 -3 -14 0 -3
4 0 7 7 7 7 0 10 -3 7 -7z m-30 -10 c-4 -3 -10 -3 -14 0 -3 4 0 7 7 7 7 0 10
-3 7 -7z m-2450 -50 c-4 -3 -10 -3 -14 0 -3 4 0 7 7 7 7 0 10 -3 7 -7z m200
-10 c-4 -3 -7 0 -7 7 0 7 3 10 7 7 3 -4 3 -10 0 -14z m-200 -30 c-4 -3 -7 0
-7 7 0 7 3 10 7 7 3 -4 3 -10 0 -14z m190 -5 c-3 -8 -6 -5 -6 6 -1 11 2 17 5
13 3 -3 4 -12 1 -19z m-180 -25 c-4 -3 -7 0 -7 7 0 7 3 10 7 7 3 -4 3 -10 0
-14z m170 -15 c-3 -8 -6 -5 -6 6 -1 11 2 17 5 13 3 -3 4 -12 1 -19z m-160 -25
c-4 -3 -7 0 -7 7 0 7 3 10 7 7 3 -4 3 -10 0 -14z m150 -10 c-4 -3 -7 0 -7 7 0
7 3 10 7 7 3 -4 3 -10 0 -14z m-140 -20 c-4 -3 -7 0 -7 7 0 7 3 10 7 7 3 -4 3
-10 0 -14z m130 -10 c-4 -3 -7 0 -7 7 0 7 3 10 7 7 3 -4 3 -10 0 -14z m-120
-30 c-4 -3 -7 0 -7 7 0 7 3 10 7 7 3 -4 3 -10 0 -14z m110 -10 c-4 -3 -7 0 -7
7 0 7 3 10 7 7 3 -4 3 -10 0 -14z m-48 -21 c22 2 41 0 41 -5 0 -15 -93 -3 -97
13 -4 12 -3 12 5 1 6 -9 24 -12 51 -9z"/>
<path d="M590 520 c0 -6 26 -10 59 -10 33 0 63 5 66 10 4 6 -18 10 -59 10 -37
0 -66 -4 -66 -10z"/>
<path d="M810 495 l0 -35 65 0 65 0 0 35 0 35 -65 0 -65 0 0 -35z"/>
<path d="M2210 520 c0 -6 28 -10 65 -10 37 0 65 4 65 10 0 6 -28 10 -65 10
-37 0 -65 -4 -65 -10z"/>
<path d="M2430 520 c0 -6 28 -10 65 -10 37 0 65 4 65 10 0 6 -28 10 -65 10
-37 0 -65 -4 -65 -10z"/>
<path d="M2435 460 c3 -5 30 -10 60 -10 30 0 57 5 60 10 4 6 -18 10 -60 10
-42 0 -64 -4 -60 -10z"/>
</g>
</svg>
