<svg viewBox="0 0 24 24" fill="none" xmlns="http://www.w3.org/2000/svg"><path d="M2 6a4 4 0 014-4h12a4 4 0 014 4v12a4 4 0 01-4 4H6a4 4 0 01-4-4V6z" fill="#F6F6F6"/><path d="M12 5v5.811l4.375 1.627L12 5z" fill="#303030"/><path d="M12 15.538V19l4.375-6.125L12 15.538z" fill="#393938"/><path d="M12 14.813l4.375-2.376L12 10.812v4.001z" fill="#0C0C0C"/><path d="M12 5v5.811l-4.375 1.627L12 5zM12 15.538V19l-4.375-6.125L12 15.538z" fill="#8D8D8D"/><path d="M12 14.813l-4.375-2.376L12 10.812v4.001z" fill="#363636"/></svg>
