<svg viewBox="0 0 24 24" fill="none" xmlns="http://www.w3.org/2000/svg"><path d="M2 6a4 4 0 014-4h12a4 4 0 014 4v12a4 4 0 01-4 4H6a4 4 0 01-4-4V6z" fill="#FF9421"/><path fill-rule="evenodd" clip-rule="evenodd" d="M15.483 12.435c.745-.149 1.314-.603 1.484-1.561.234-1.309-.8-2.036-2.223-2.536l.503-1.77-1.129-.292L13.628 8c-.297-.077-.602-.15-.905-.222l.493-1.735-1.129-.292-.503 1.769c-.246-.059-.487-.116-.722-.177l.002-.006-1.558-.404-.327 1.15s.838.202.82.213c.458.119.535.41.516.64l-.573 2.016c.032.008.072.02.118.038l-.12-.03-.803 2.824c-.059.132-.206.33-.526.247.011.016-.821-.213-.821-.213L7 15.045l1.47.38c.273.072.541.146.804.216l-.508 1.79 1.129.293.503-1.771c.308.086.607.167.9.242l-.502 1.763 1.13.292.508-1.786c1.928.388 3.387.276 4.036-1.382.523-1.335.02-2.121-.987-2.647zM12.392 9.05c.637.165 2.695.49 2.335 1.76-.347 1.217-2.309.556-2.947.39l.612-2.15zm-1.598 5.607l.674-2.37c.766.197 3.226.61 2.83 2.005-.38 1.338-2.738.563-3.504.365z" fill="#F6F6F6"/></svg>
