<svg viewBox="0 0 24 24" fill="none" xmlns="http://www.w3.org/2000/svg"><path fill-rule="evenodd" clip-rule="evenodd" d="M.784 3.154h13.433c.285.334.504.725.637 1.154H.147c.134-.429.352-.82.637-1.154zM0 5.462h15v1.154H0V5.462zM15 7.77H0v1.153h15V7.77zM0 10.077h15v1.154H0v-1.154zm15 2.308H0v1.154h15v-1.154zM.147 14.693h14.707a3.27 3.27 0 0 1-.637 1.154H.784a3.274 3.274 0 0 1-.637-1.154z" fill="#F5F5F5"/><path fill-rule="evenodd" clip-rule="evenodd" d="M11.719 2H3.28c-1 0-1.896.448-2.498 1.154h13.434A3.274 3.274 0 0 0 11.719 2zM15 6.615H0V7.77h15V6.615zm-.147-2.307c.096.308.147.635.147.974v.18H0v-.18c0-.34.051-.666.147-.974h14.706zM15 8.923H0v1.154h15V8.923zm0 4.616v.18c0 .34-.051.666-.147.974H.147A3.28 3.28 0 0 1 0 13.719v-.18h15zm-.783 2.307H.783A3.274 3.274 0 0 0 3.281 17h8.438c1 0 1.896-.448 2.498-1.154zM0 11.231h15v1.154H0V11.23z" fill="#FA4051"/><path d="M8 2H3.25C1.455 2 0 3.47 0 5.281v4.796h8V2z" fill="#1939C9"/><path fill-rule="evenodd" clip-rule="evenodd" d="m2.613 2.721.062.187.197.002c.025 0 .036.032.015.047l-.158.117.06.188a.027.027 0 0 1-.041.03l-.16-.115-.16.114a.027.027 0 0 1-.041-.03l.06-.187-.16-.117a.026.026 0 0 1 .016-.047l.197-.002.062-.187a.027.027 0 0 1 .05 0zM.87 3.262a.027.027 0 0 0 .04.03l.161-.115.16.115a.027.027 0 0 0 .04-.03l-.059-.187.159-.117a.027.027 0 0 0-.016-.048l-.197-.002-.033-.1a3.295 3.295 0 0 0-.241.233l.046.034-.06.187zm.226 1.016.062.187.197.001c.026 0 .036.033.016.048l-.159.117.06.187a.027.027 0 0 1-.041.03l-.16-.115-.16.115a.027.027 0 0 1-.04-.03l.059-.187-.159-.117a.027.027 0 0 1 .016-.048l.197-.001.062-.187a.027.027 0 0 1 .05 0zm.062 1.913-.062-.186a.027.027 0 0 0-.05 0l-.062.186-.197.002a.027.027 0 0 0-.016.048l.159.117-.06.187a.027.027 0 0 0 .04.03l.161-.115.16.115a.027.027 0 0 0 .04-.03l-.059-.187.159-.117a.027.027 0 0 0-.016-.048l-.197-.002zm-.062 1.4.062.187.197.002c.026 0 .036.032.016.047l-.159.117.06.188a.027.027 0 0 1-.041.03l-.16-.115-.16.114a.027.027 0 0 1-.04-.03l.059-.187-.159-.117a.027.027 0 0 1 .016-.047l.197-.002.062-.187a.027.027 0 0 1 .05 0zm.062 1.63-.062-.187a.027.027 0 0 0-.05 0l-.062.187-.197.002a.027.027 0 0 0-.016.047l.159.117-.06.188a.027.027 0 0 0 .04.03l.161-.115.16.114a.027.027 0 0 0 .04-.03l-.059-.187.159-.117a.027.027 0 0 0-.016-.047l-.197-.002zm.695-5.762.062.186.197.002c.025 0 .036.032.015.048l-.158.116.06.188a.027.027 0 0 1-.041.03l-.16-.115-.16.115a.027.027 0 0 1-.04-.03l.058-.188-.158-.116a.027.027 0 0 1 .016-.048l.196-.002.063-.186a.027.027 0 0 1 .05 0zm.062 1.913-.062-.187a.027.027 0 0 0-.05 0l-.063.187-.196.001a.027.027 0 0 0-.016.048l.158.117-.059.187a.027.027 0 0 0 .04.03l.16-.115.16.115a.027.027 0 0 0 .042-.03l-.06-.187.158-.117a.027.027 0 0 0-.015-.048l-.197-.002zm-.062 1.453.062.187.197.001c.025 0 .036.033.015.048l-.158.117.06.188a.027.027 0 0 1-.041.03l-.16-.115-.16.114a.027.027 0 0 1-.04-.03l.058-.187-.158-.117a.027.027 0 0 1 .016-.048l.196-.001.063-.187a.027.027 0 0 1 .05 0zm.062 1.66L1.853 8.3a.027.027 0 0 0-.05 0l-.063.186-.196.002a.027.027 0 0 0-.016.048l.158.116-.059.188a.027.027 0 0 0 .04.03l.16-.115.16.115a.027.027 0 0 0 .042-.03l-.06-.188.158-.116a.027.027 0 0 0-.015-.048l-.197-.002zm.76-4.02-.062-.187a.027.027 0 0 0-.05 0l-.063.187-.197.001a.027.027 0 0 0-.015.048l.158.117-.06.187a.027.027 0 0 0 .042.03l.16-.115.16.115a.027.027 0 0 0 .04-.03l-.059-.187.158-.117a.027.027 0 0 0-.015-.048l-.197-.001zm-.062 1.54.062.186.197.002c.025 0 .036.033.015.048l-.158.117.06.187a.027.027 0 0 1-.041.03l-.16-.115-.16.115a.027.027 0 0 1-.041-.03l.06-.187-.16-.117a.027.027 0 0 1 .016-.048L2.5 6.19l.062-.186a.027.027 0 0 1 .05 0zm.062 1.773-.062-.187a.027.027 0 0 0-.05 0l-.063.187-.197.002a.027.027 0 0 0-.015.047l.158.117-.06.188a.027.027 0 0 0 .042.03l.16-.115.16.114a.027.027 0 0 0 .04-.03l-.059-.187.158-.117a.027.027 0 0 0-.015-.047l-.197-.002zm-.062 1.256.062.187.197.002c.025 0 .036.032.015.047l-.158.117.06.188a.027.027 0 0 1-.041.03l-.16-.115-.16.114a.027.027 0 0 1-.041-.03l.06-.187-.16-.117a.027.027 0 0 1 .016-.047L2.5 9.22l.062-.187a.027.027 0 0 1 .05 0zm.818-5.389-.062-.186a.027.027 0 0 0-.05 0l-.063.186-.197.002a.027.027 0 0 0-.015.048l.158.116-.06.188a.027.027 0 0 0 .041.03l.16-.115.16.115a.027.027 0 0 0 .041-.03l-.06-.188.16-.116a.026.026 0 0 0-.016-.048l-.197-.002zm-.062 1.54.062.187.197.001c.025 0 .036.033.015.048l-.158.117.06.187a.027.027 0 0 1-.042.03l-.16-.115-.16.115a.027.027 0 0 1-.04-.03l.059-.187-.158-.117a.027.027 0 0 1 .015-.048l.197-.002.062-.186a.027.027 0 0 1 .05 0zm.062 1.827-.062-.187a.027.027 0 0 0-.05 0l-.063.187-.197.001a.027.027 0 0 0-.015.048l.158.117-.06.188a.027.027 0 0 0 .041.03l.16-.115.16.114a.027.027 0 0 0 .041-.03l-.06-.187.16-.117a.027.027 0 0 0-.016-.048l-.197-.001zm-.062 1.287.062.186.197.002c.025 0 .036.032.015.048l-.158.116.06.188a.027.027 0 0 1-.042.03l-.16-.115-.16.115a.027.027 0 0 1-.04-.03l.059-.188-.158-.116a.027.027 0 0 1 .015-.048l.197-.002.062-.186a.027.027 0 0 1 .05 0zm.822-5.39-.063-.188a.027.027 0 0 0-.05 0l-.062.187-.197.002a.026.026 0 0 0-.015.047l.158.117-.06.188a.027.027 0 0 0 .041.03l.16-.115.16.114a.027.027 0 0 0 .04-.03l-.058-.187.158-.117a.026.026 0 0 0-.016-.047l-.196-.002zm-.063 1.369.063.187.196.001c.026 0 .036.033.016.048l-.158.117.059.187a.027.027 0 0 1-.04.03l-.16-.115-.16.115a.027.027 0 0 1-.042-.03l.06-.187-.158-.117a.027.027 0 0 1 .015-.048l.197-.002.062-.186a.027.027 0 0 1 .05 0zm.063 1.913-.063-.186a.027.027 0 0 0-.05 0l-.062.186-.197.002a.027.027 0 0 0-.015.048l.158.117-.06.187a.027.027 0 0 0 .041.03l.16-.115.16.115a.027.027 0 0 0 .04-.03l-.058-.187.158-.117a.027.027 0 0 0-.016-.048l-.196-.002zm-.063 1.4.063.187.196.002c.026 0 .036.032.016.047l-.158.117.059.188a.027.027 0 0 1-.04.03l-.16-.115-.16.114a.027.027 0 0 1-.042-.03l.06-.187-.158-.117a.027.027 0 0 1 .015-.047l.197-.002.062-.187a.027.027 0 0 1 .05 0zm.063 1.63-.063-.187a.027.027 0 0 0-.05 0l-.062.187-.197.002a.027.027 0 0 0-.015.047l.158.117-.06.188a.027.027 0 0 0 .041.03l.16-.115.16.114a.027.027 0 0 0 .04-.03l-.058-.187.158-.117a.027.027 0 0 0-.016-.047l-.196-.002zm.694-5.762.062.186.197.002c.026 0 .036.032.016.048L5 3.81l.06.188a.027.027 0 0 1-.04.03l-.161-.115-.16.115a.027.027 0 0 1-.04-.03l.059-.188-.159-.116a.027.027 0 0 1 .016-.048l.197-.002.062-.186a.027.027 0 0 1 .05 0zm.062 1.913-.062-.187a.027.027 0 0 0-.05 0l-.062.187-.197.001a.027.027 0 0 0-.016.048l.159.117-.06.187a.027.027 0 0 0 .041.03l.16-.115.16.115a.027.027 0 0 0 .04-.03l-.059-.187.159-.117a.027.027 0 0 0-.016-.048l-.197-.002zm-.062 1.453.062.187.197.001c.026 0 .036.033.016.048L5 7.178l.06.188a.027.027 0 0 1-.04.03l-.16-.116-.16.114a.027.027 0 0 1-.04-.03l.059-.187-.159-.117a.027.027 0 0 1 .016-.048l.197-.001.062-.187a.026.026 0 0 1 .05 0zm.062 1.66L4.885 8.3a.027.027 0 0 0-.05 0l-.062.186-.197.002a.027.027 0 0 0-.016.048l.159.116-.06.188a.027.027 0 0 0 .041.03l.16-.115.16.115a.027.027 0 0 0 .04-.03l-.059-.188.159-.116a.027.027 0 0 0-.016-.048l-.197-.002zm.696-5.764.062.187.197.002c.025 0 .036.032.016.047l-.159.117.06.188a.027.027 0 0 1-.041.03l-.16-.115-.16.114a.027.027 0 0 1-.04-.03l.058-.187-.158-.117a.026.026 0 0 1 .016-.047l.196-.002.063-.187a.026.026 0 0 1 .05 0zm.062 1.744-.062-.187a.026.026 0 0 0-.05 0l-.063.187-.196.001a.027.027 0 0 0-.016.048l.158.117-.059.187a.027.027 0 0 0 .04.03l.16-.115.16.115a.027.027 0 0 0 .042-.03l-.06-.187.159-.117a.027.027 0 0 0-.016-.048l-.197-.001zm-.062 1.54.062.186.197.002c.025 0 .036.033.016.048l-.159.117.06.187a.027.027 0 0 1-.041.03l-.16-.115-.16.115a.027.027 0 0 1-.04-.03l.058-.187-.158-.117a.027.027 0 0 1 .016-.048l.196-.002.063-.186a.026.026 0 0 1 .05 0zm.062 1.773-.062-.187a.026.026 0 0 0-.05 0l-.063.187-.196.002a.027.027 0 0 0-.016.047l.158.117-.059.188a.027.027 0 0 0 .04.03l.16-.115.16.114a.027.027 0 0 0 .042-.03l-.06-.187.159-.117a.027.027 0 0 0-.016-.047l-.197-.002zm-.062 1.256.062.187.197.002c.025 0 .036.032.016.047l-.159.117.06.188a.027.027 0 0 1-.041.03l-.16-.115-.16.114a.027.027 0 0 1-.04-.03l.058-.187-.158-.117a.027.027 0 0 1 .016-.047l.196-.002.063-.187a.026.026 0 0 1 .05 0zm.818-5.389L6.4 3.46a.027.027 0 0 0-.05 0l-.063.186-.196.002a.027.027 0 0 0-.016.048l.158.116-.06.188a.027.027 0 0 0 .04.03l.16-.115.16.115A.027.027 0 0 0 6.574 4l-.059-.188.158-.116a.026.026 0 0 0-.015-.048l-.197-.002zM6.4 5.185l.062.187.197.001c.025 0 .036.033.015.048l-.158.117.06.187a.027.027 0 0 1-.041.03l-.16-.115-.16.115a.027.027 0 0 1-.041-.03l.06-.187-.159-.117a.027.027 0 0 1 .016-.048l.196-.002.063-.186a.027.027 0 0 1 .05 0zm.062 1.827L6.4 6.825a.026.026 0 0 0-.05 0l-.063.187-.196.001a.027.027 0 0 0-.016.048l.158.117-.059.188a.027.027 0 0 0 .04.03l.16-.115.16.114a.027.027 0 0 0 .041-.03l-.059-.187.158-.117a.027.027 0 0 0-.015-.048l-.197-.001zM6.4 8.299l.062.186.197.002c.025 0 .036.032.015.048l-.158.116.06.188a.027.027 0 0 1-.041.03l-.16-.115-.16.115a.027.027 0 0 1-.041-.03l.06-.188-.159-.116a.027.027 0 0 1 .016-.048l.196-.002.063-.186a.027.027 0 0 1 .05 0zm.82-5.39-.061-.188c-.008-.024-.043-.024-.05 0l-.063.187-.197.002a.026.026 0 0 0-.015.047l.158.117-.06.188a.027.027 0 0 0 .041.03l.16-.115.16.114a.027.027 0 0 0 .041-.03l-.06-.187.16-.117a.027.027 0 0 0-.016-.047l-.197-.002zm-.061 1.369.062.187.197.001c.025 0 .036.033.015.048l-.158.117.06.187a.027.027 0 0 1-.041.03l-.16-.115-.16.115a.027.027 0 0 1-.041-.03l.06-.187-.16-.117a.027.027 0 0 1 .016-.048l.197-.001.062-.187c.008-.024.043-.024.05 0zM7.22 6.19l-.062-.186c-.008-.024-.043-.024-.05 0l-.063.186-.197.002a.027.027 0 0 0-.015.048l.158.117-.06.187a.027.027 0 0 0 .041.03l.16-.115.16.115a.027.027 0 0 0 .041-.03l-.06-.187.16-.117a.027.027 0 0 0-.016-.048L7.22 6.19zm-.062 1.4.062.187.197.002c.025 0 .036.032.015.047l-.158.117.06.188a.027.027 0 0 1-.041.03l-.16-.115-.16.114a.027.027 0 0 1-.041-.03l.06-.187-.16-.117a.027.027 0 0 1 .016-.047l.197-.002.062-.187c.008-.024.043-.024.05 0zm.062 1.63-.062-.187c-.008-.024-.043-.024-.05 0l-.063.187-.197.002a.027.027 0 0 0-.015.047l.158.117-.06.188a.027.027 0 0 0 .041.03l.16-.115.16.114a.027.027 0 0 0 .041-.03l-.06-.187.16-.117a.027.027 0 0 0-.016-.047L7.22 9.22z" fill="#F5F5F5"/><path d="M20.719 7H12.28A3.281 3.281 0 0 0 9 10.281v8.438A3.281 3.281 0 0 0 12.281 22h8.438A3.281 3.281 0 0 0 24 18.719V10.28A3.281 3.281 0 0 0 20.719 7z" fill="#FB4B4E"/><path d="m12.34 9.554.373 1.118 1.178.009a.159.159 0 0 1 .093.286l-.947.7.355 1.123a.159.159 0 0 1-.244.177l-.958-.685-.959.685a.159.159 0 0 1-.243-.177l.355-1.123-.948-.7a.159.159 0 0 1 .093-.286l1.178-.01.373-1.117a.159.159 0 0 1 .301 0zm4.278.276.268.364.43-.135a.06.06 0 0 1 .068.094l-.264.367.262.368a.06.06 0 0 1-.068.093l-.43-.137-.27.362a.06.06 0 0 1-.11-.036l-.002-.452-.428-.144a.06.06 0 0 1 0-.116l.43-.141.004-.452a.06.06 0 0 1 .11-.035zm-1.627-1.087.45.05.191-.41a.06.06 0 0 1 .115.013l.092.443.449.055a.06.06 0 0 1 .022.114l-.392.224.086.444a.06.06 0 0 1-.101.057l-.335-.304-.395.218a.06.06 0 0 1-.085-.078l.185-.412-.33-.309a.06.06 0 0 1 .048-.105zm.71 4.38-.267.365-.431-.135a.06.06 0 0 0-.068.093l.264.367-.261.369a.061.061 0 0 0 .068.093l.43-.138.27.363a.06.06 0 0 0 .11-.036l.002-.452.428-.145a.06.06 0 0 0 0-.115l-.43-.142-.005-.451a.06.06 0 0 0-.11-.036zm1.627-1.021-.449.049-.191-.41a.06.06 0 0 0-.115.014l-.093.442-.448.056a.06.06 0 0 0-.023.114l.392.224-.085.444a.06.06 0 0 0 .1.056l.335-.303.396.218a.06.06 0 0 0 .085-.078l-.185-.412.33-.309a.06.06 0 0 0-.049-.105z" fill="#FFE15A"/></svg>
