<svg viewBox="0 0 24 24" fill="none" xmlns="http://www.w3.org/2000/svg"><path d="M11.719 2H3.28A3.281 3.281 0 000 5.281v8.438A3.281 3.281 0 003.281 17h8.438A3.281 3.281 0 0015 13.719V5.28A3.281 3.281 0 0011.719 2z" fill="#FB4B4E"/><path d="M10.708 8.333H8.667V6.292A.292.292 0 008.375 6h-1.75a.292.292 0 00-.292.292v2.041H4.292A.292.292 0 004 8.625v1.75c0 .161.13.292.292.292h2.041v2.041c0 .161.13.292.292.292h1.75c.161 0 .292-.13.292-.292v-2.041h2.041c.161 0 .292-.13.292-.292v-1.75a.292.292 0 00-.292-.292z" fill="#F6F6F6"/><path d="M20.719 7H12.28A3.281 3.281 0 009 10.281v8.438A3.281 3.281 0 0012.281 22h8.438A3.281 3.281 0 0024 18.719V10.28A3.281 3.281 0 0020.719 7z" fill="#F6F6F6"/><path d="M16.5 18a3.5 3.5 0 100-7 3.5 3.5 0 000 7z" fill="#FB4B4E"/></svg>
